<svg width="20" height="20" viewBox="0 0 20 20" fill="none" xmlns="http://www.w3.org/2000/svg">
<path d="M18.3332 7.70834H1.6665C1.32484 7.70834 1.0415 7.42501 1.0415 7.08334C1.0415 6.74168 1.32484 6.45834 1.6665 6.45834H18.3332C18.6748 6.45834 18.9582 6.74168 18.9582 7.08334C18.9582 7.42501 18.6748 7.70834 18.3332 7.70834Z" fill="#101840"/>
<path d="M6.66667 14.375H5C4.65833 14.375 4.375 14.0917 4.375 13.75C4.375 13.4083 4.65833 13.125 5 13.125H6.66667C7.00833 13.125 7.29167 13.4083 7.29167 13.75C7.29167 14.0917 7.00833 14.375 6.66667 14.375Z" fill="#101840"/>
<path d="M12.0833 14.375H8.75C8.40833 14.375 8.125 14.0917 8.125 13.75C8.125 13.4083 8.40833 13.125 8.75 13.125H12.0833C12.425 13.125 12.7083 13.4083 12.7083 13.75C12.7083 14.0917 12.425 14.375 12.0833 14.375Z" fill="#101840"/>
<path d="M14.6332 17.7083H5.3665C2.04984 17.7083 1.0415 16.7083 1.0415 13.425V6.57499C1.0415 3.29166 2.04984 2.29166 5.3665 2.29166H14.6248C17.9415 2.29166 18.9498 3.29166 18.9498 6.57499V13.4167C18.9582 16.7083 17.9498 17.7083 14.6332 17.7083ZM5.3665 3.54166C2.74984 3.54166 2.2915 3.99166 2.2915 6.57499V13.4167C2.2915 16 2.74984 16.45 5.3665 16.45H14.6248C17.2415 16.45 17.6998 16 17.6998 13.4167V6.57499C17.6998 3.99166 17.2415 3.54166 14.6248 3.54166H5.3665Z" fill="#101840"/>
</svg>
