<svg width="20" height="20" viewBox="0 0 20 20" fill="none" xmlns="http://www.w3.org/2000/svg">
<path d="M9.99984 14.1667C11.1526 14.1667 12.1353 13.7604 12.9478 12.9479C13.7603 12.1354 14.1665 11.1528 14.1665 9.99999C14.1665 8.84721 13.7603 7.86457 12.9478 7.05207C12.1353 6.23957 11.1526 5.83332 9.99984 5.83332C8.84706 5.83332 7.86442 6.23957 7.05192 7.05207C6.23942 7.86457 5.83317 8.84721 5.83317 9.99999C5.83317 11.1528 6.23942 12.1354 7.05192 12.9479C7.86442 13.7604 8.84706 14.1667 9.99984 14.1667ZM9.99984 18.3333C8.84706 18.3333 7.76373 18.1146 6.74984 17.6771C5.73595 17.2396 4.854 16.6458 4.104 15.8958C3.354 15.1458 2.76025 14.2639 2.32275 13.25C1.88525 12.2361 1.6665 11.1528 1.6665 9.99999C1.6665 8.84721 1.88525 7.76388 2.32275 6.74999C2.76025 5.7361 3.354 4.85416 4.104 4.10416C4.854 3.35416 5.73595 2.76041 6.74984 2.32291C7.76373 1.88541 8.84706 1.66666 9.99984 1.66666C11.1526 1.66666 12.2359 1.88541 13.2498 2.32291C14.2637 2.76041 15.1457 3.35416 15.8957 4.10416C16.6457 4.85416 17.2394 5.7361 17.6769 6.74999C18.1144 7.76388 18.3332 8.84721 18.3332 9.99999C18.3332 11.1528 18.1144 12.2361 17.6769 13.25C17.2394 14.2639 16.6457 15.1458 15.8957 15.8958C15.1457 16.6458 14.2637 17.2396 13.2498 17.6771C12.2359 18.1146 11.1526 18.3333 9.99984 18.3333ZM9.99984 16.6667C11.8609 16.6667 13.4373 16.0208 14.729 14.7292C16.0207 13.4375 16.6665 11.8611 16.6665 9.99999C16.6665 8.13888 16.0207 6.56249 14.729 5.27082C13.4373 3.97916 11.8609 3.33332 9.99984 3.33332C8.13873 3.33332 6.56234 3.97916 5.27067 5.27082C3.979 6.56249 3.33317 8.13888 3.33317 9.99999C3.33317 11.8611 3.979 13.4375 5.27067 14.7292C6.56234 16.0208 8.13873 16.6667 9.99984 16.6667Z" fill="#524702"/>
</svg>
