<svg width="18" height="18" viewBox="0 0 18 18" fill="none" xmlns="http://www.w3.org/2000/svg">
<path d="M17.973 9.2355L17.9708 9.231L17.9692 9.22725L15.3495 2.67825C15.063 1.962 14.3798 1.49925 13.6088 1.49925H9.37425V0.375C9.37425 0.168 9.20625 0 8.99925 0C8.79225 0 8.62425 0.168 8.62425 0.375V1.5H4.3905C3.6195 1.5 2.93625 1.96275 2.64975 2.679L0.03075 9.22725L0.02925 9.231L0.027 9.2355C0.009 9.27975 0 10.0612 0 10.0612C0 11.709 1.09275 13.092 2.65725 13.4242C2.89275 13.4745 3.13275 13.5 3.36975 13.5H3.37575C5.23575 13.497 6.75 11.9827 6.75 10.125C6.75 10.125 6.741 9.2805 6.723 9.2355L6.72075 9.231L6.71925 9.22725L3.96225 2.334C4.095 2.27925 4.23975 2.25 4.3905 2.25H8.625V17.25H3.375C3.168 17.25 3 17.418 3 17.625C3 17.832 3.168 18 3.375 18H14.625C14.832 18 15 17.832 15 17.625C15 17.418 14.832 17.25 14.625 17.25H9.375V2.25H13.6095C13.7603 2.25 13.9057 2.27925 14.0377 2.334L11.2808 9.22725L11.2792 9.231L11.277 9.2355C11.259 9.27975 11.25 10.125 11.25 10.125C11.25 11.9827 12.7643 13.497 14.6243 13.5H14.6302C14.8673 13.5 15.1072 13.4745 15.342 13.4242C16.9072 13.0913 18 11.7083 18 10.0612C18 10.0612 17.991 9.27975 17.973 9.2355ZM3.37425 12.75C3.162 12.762 2.99925 12.7305 2.81325 12.6908C1.599 12.4327 0.75 11.3512 0.75 10.0612V9.75H6V10.125C6 11.5695 4.8225 12.7478 3.37425 12.75ZM5.8215 9H0.9285C0.9285 9 3.36525 2.91075 3.3765 2.88825L5.8215 9ZM14.6235 2.88825C14.6347 2.91075 17.0707 9 17.0707 9H12.1785L14.6235 2.88825ZM15.186 12.6908C15.0007 12.7305 14.8365 12.7635 14.6257 12.75C13.1775 12.7478 12 11.5695 12 10.125V9.75H17.25V10.0612C17.25 11.3512 16.401 12.4327 15.186 12.6908Z" fill="#FFDE02"/>
</svg>
