<svg width="18" height="18" viewBox="0 0 18 18" fill="none" xmlns="http://www.w3.org/2000/svg">
<path d="M3.83203 14.168C3.18516 13.5211 3.61406 12.1641 3.28359 11.3695C2.95313 10.575 1.6875 9.87891 1.6875 9C1.6875 8.12109 2.93906 7.45313 3.28359 6.63047C3.62813 5.80781 3.18516 4.47891 3.83203 3.83203C4.47891 3.18516 5.83594 3.61406 6.63047 3.28359C7.425 2.95313 8.12109 1.6875 9 1.6875C9.87891 1.6875 10.5469 2.93906 11.3695 3.28359C12.1922 3.62813 13.5211 3.18516 14.168 3.83203C14.8148 4.47891 14.3859 5.83594 14.7164 6.63047C15.0469 7.425 16.3125 8.12109 16.3125 9C16.3125 9.87891 15.0609 10.5469 14.7164 11.3695C14.3719 12.1922 14.8148 13.5211 14.168 14.168C13.5211 14.8148 12.1641 14.3859 11.3695 14.7164C10.575 15.0469 9.87891 16.3125 9 16.3125C8.12109 16.3125 7.45313 15.0609 6.63047 14.7164C5.80781 14.3719 4.47891 14.8148 3.83203 14.168Z" stroke="#FFDE02" stroke-linecap="round" stroke-linejoin="round"/>
<path d="M12.0938 7.3125L7.96641 11.25L5.90625 9.28125" stroke="#FFDE02" stroke-linecap="round" stroke-linejoin="round"/>
</svg>
