<svg width="21" height="20" viewBox="0 0 21 20" fill="none" xmlns="http://www.w3.org/2000/svg">
<path d="M10.6795 18.9584C5.73786 18.9584 1.72119 14.9417 1.72119 10C1.72119 5.05835 5.73786 1.04169 10.6795 1.04169C15.6212 1.04169 19.6379 5.05835 19.6379 10C19.6379 14.9417 15.6212 18.9584 10.6795 18.9584ZM10.6795 2.29169C6.42952 2.29169 2.97119 5.75002 2.97119 10C2.97119 14.25 6.42952 17.7084 10.6795 17.7084C14.9295 17.7084 18.3879 14.25 18.3879 10C18.3879 5.75002 14.9295 2.29169 10.6795 2.29169Z" fill="#101840"/>
<path d="M14.0129 10.625H7.34619C7.00452 10.625 6.72119 10.3417 6.72119 10C6.72119 9.65833 7.00452 9.375 7.34619 9.375H14.0129C14.3545 9.375 14.6379 9.65833 14.6379 10C14.6379 10.3417 14.3545 10.625 14.0129 10.625Z" fill="#101840"/>
<path d="M10.6797 13.9584C10.338 13.9584 10.0547 13.675 10.0547 13.3334V6.66669C10.0547 6.32502 10.338 6.04169 10.6797 6.04169C11.0214 6.04169 11.3047 6.32502 11.3047 6.66669V13.3334C11.3047 13.675 11.0214 13.9584 10.6797 13.9584Z" fill="#101840"/>
</svg>
