<svg width="120" height="48" viewBox="0 0 120 48" fill="none" xmlns="http://www.w3.org/2000/svg">
<rect x="0.5" y="0.5" width="119" height="47" rx="23.5" stroke="#6D6D6D"/>
<g clip-path="url(#clip0_2473_9541)">
<path d="M69.3735 20.0945C67.7349 21.107 66.7229 22.8428 66.7229 24.7714C66.7229 26.9412 68.0241 28.918 70 29.7377C69.6145 30.9913 69.0361 32.1485 68.3133 33.2092C67.253 34.7039 66.1446 36.2468 64.506 36.2468C62.8675 36.2468 62.3855 35.2825 60.4578 35.2825C58.5783 35.2825 57.9036 36.2951 56.3614 36.2951C54.8193 36.2951 53.759 34.8968 52.5542 33.161C50.9639 30.7502 50.0482 27.9537 50 25.0125C50 20.2391 53.0843 17.6837 56.1687 17.6837C57.8072 17.6837 59.1566 18.7444 60.1687 18.7444C61.1325 18.7444 62.6747 17.6355 64.506 17.6355C66.4337 17.5872 68.2651 18.5034 69.3735 20.0945ZM63.6386 15.6104C64.4578 14.6461 64.8916 13.4407 64.9398 12.1871C64.9398 12.0424 64.9398 11.8495 64.8916 11.7049C63.494 11.8495 62.1928 12.5246 61.2771 13.5853C60.4578 14.5014 59.9759 15.6586 59.9277 16.9122C59.9277 17.0569 59.9277 17.2015 59.9759 17.3462C60.0723 17.3462 60.2169 17.3944 60.3133 17.3944C61.6145 17.298 62.8193 16.6229 63.6386 15.6104Z" fill="black"/>
</g>
<defs>
<clipPath id="clip0_2473_9541">
<rect width="20" height="24.5902" fill="white" transform="translate(50 11.7049)"/>
</clipPath>
</defs>
</svg>
