<svg width="120" height="48" viewBox="0 0 120 48" fill="none" xmlns="http://www.w3.org/2000/svg">
<rect x="0.5" y="0.5" width="119" height="47" rx="23.5" stroke="#6D6D6D"/>
<path d="M70.56 24.25C70.56 23.47 70.49 22.72 70.36 22H60V26.255H65.92C65.665 27.63 64.89 28.795 63.725 29.575V32.335H67.28C69.36 30.42 70.56 27.6 70.56 24.25Z" fill="#4285F4"/>
<path d="M60 35C62.97 35 65.46 34.015 67.28 32.335L63.725 29.575C62.74 30.235 61.48 30.625 60 30.625C57.135 30.625 54.71 28.69 53.845 26.09H50.17V28.94C51.98 32.535 55.7 35 60 35Z" fill="#34A853"/>
<path d="M53.845 26.09C53.625 25.43 53.5 24.725 53.5 24C53.5 23.275 53.625 22.57 53.845 21.91V19.06H50.17C49.4 20.5929 48.9993 22.2846 49 24C49 25.775 49.425 27.455 50.17 28.94L53.845 26.09Z" fill="#FBBC05"/>
<path d="M60 17.375C61.615 17.375 63.065 17.93 64.205 19.02L67.36 15.865C65.455 14.09 62.965 13 60 13C55.7 13 51.98 15.465 50.17 19.06L53.845 21.91C54.71 19.31 57.135 17.375 60 17.375Z" fill="#EA4335"/>
</svg>
