<svg width="25" height="25" viewBox="0 0 25 25" fill="none" xmlns="http://www.w3.org/2000/svg">
<path d="M3.90625 6.25V18.75C3.90625 19.1644 4.07087 19.5618 4.3639 19.8549C4.65692 20.1479 5.05435 20.3125 5.46875 20.3125H21.0938C21.301 20.3125 21.4997 20.2302 21.6462 20.0837C21.7927 19.9372 21.875 19.7385 21.875 19.5312V8.59375C21.875 8.38655 21.7927 8.18784 21.6462 8.04132C21.4997 7.89481 21.301 7.8125 21.0938 7.8125H5.46875C5.05435 7.8125 4.65692 7.64788 4.3639 7.35485C4.07087 7.06183 3.90625 6.6644 3.90625 6.25ZM3.90625 6.25C3.90625 5.8356 4.07087 5.43817 4.3639 5.14515C4.65692 4.85212 5.05435 4.6875 5.46875 4.6875H18.75" stroke="black" stroke-width="1.2" stroke-linecap="round" stroke-linejoin="round"/>
<path d="M17.5781 14.8438C18.0096 14.8438 18.3594 14.494 18.3594 14.0625C18.3594 13.631 18.0096 13.2812 17.5781 13.2812C17.1467 13.2812 16.7969 13.631 16.7969 14.0625C16.7969 14.494 17.1467 14.8438 17.5781 14.8438Z" fill="black"/>
</svg>
