<svg width="466" height="971" viewBox="0 0 466 971" fill="none" xmlns="http://www.w3.org/2000/svg">
<path opacity="0.0144928" d="M532.101 795.205C533.197 799.968 531.009 804.882 526.736 807.254L399.859 877.686C397.332 879.088 394.353 879.437 391.57 878.655L191.542 822.465C189.353 821.85 187.41 820.571 185.981 818.803L71.5591 677.327C68.9674 674.123 68.3912 669.736 70.0675 665.97L121.536 550.371C123.212 546.606 126.858 544.099 130.973 543.881L312.674 534.246C314.944 534.126 317.195 534.714 319.116 535.929L494.719 646.98C497.162 648.525 498.896 650.972 499.544 653.789L532.101 795.205Z" stroke="url(#paint0_linear_2473_9389)" stroke-width="0.447605"/>
<path opacity="0.0289855" d="M537.347 772.972C538.681 777.66 536.759 782.666 532.631 785.258L410.618 861.877C408.167 863.416 405.207 863.924 402.382 863.29L201.528 818.16C199.304 817.661 197.291 816.48 195.769 814.783L75.3284 680.491C72.5802 677.427 71.7794 673.082 73.2544 669.239L118.332 551.808C119.807 547.965 123.31 545.272 127.402 544.834L306.766 525.625C309.033 525.383 311.319 525.852 313.306 526.969L492.767 627.83C495.29 629.248 497.151 631.606 497.942 634.39L537.347 772.972Z" stroke="url(#paint1_linear_2473_9389)" stroke-width="0.447605"/>
<path opacity="0.0434783" d="M541.885 750.731C543.45 755.333 541.798 760.417 537.827 763.22L420.976 845.711C418.608 847.383 415.674 848.049 412.816 847.564L211.741 813.427C209.487 813.044 207.408 811.966 205.797 810.343L79.773 683.476C76.8761 680.56 75.8534 676.268 77.1236 672.359L115.761 553.445C117.031 549.535 120.381 546.664 124.439 546.008L300.965 517.445C303.223 517.079 305.538 517.429 307.587 518.445L490.325 609.016C492.922 610.303 494.904 612.566 495.837 615.311L541.885 750.731Z" stroke="url(#paint2_linear_2473_9389)" stroke-width="0.447605"/>
<path opacity="0.057971" d="M545.713 728.52C547.504 733.025 546.125 738.171 542.322 741.177L430.909 829.21C428.631 831.01 425.733 831.833 422.849 831.499L222.149 808.252C219.87 807.988 217.732 807.017 216.034 805.474L84.8705 686.244C81.8329 683.483 80.5918 679.257 81.6543 675.291L113.821 555.245C114.883 551.28 118.071 548.24 122.082 547.367L295.288 509.694C297.53 509.206 299.868 509.434 301.973 510.344L487.408 590.562C490.072 591.715 492.171 593.877 493.244 596.575L545.713 728.52Z" stroke="url(#paint3_linear_2473_9389)" stroke-width="0.447605"/>
<path opacity="0.0724638" d="M548.84 706.38C550.851 710.776 549.747 715.971 546.122 719.168L440.405 812.403C438.224 814.326 435.369 815.304 432.467 815.123L232.726 802.632C230.429 802.489 228.236 801.626 226.456 800.167L90.6029 688.764C87.4329 686.165 85.9775 682.014 86.8298 678.005L112.513 557.175C113.365 553.165 116.383 549.965 120.336 548.88L289.756 502.365C291.975 501.755 294.33 501.86 296.486 502.663L484.039 572.494C486.764 573.509 488.974 575.564 490.184 578.208L548.84 706.38Z" stroke="url(#paint4_linear_2473_9389)" stroke-width="0.447605"/>
<path opacity="0.0869565" d="M551.281 684.348C553.506 688.624 552.678 693.852 549.24 697.231L449.455 795.313C447.378 797.354 444.575 798.485 441.663 798.458L243.451 796.559C241.143 796.537 238.9 795.787 237.043 794.416L96.9557 691.001C93.6621 688.57 91.997 684.507 92.6374 680.463L111.844 559.197C112.485 555.154 115.324 551.804 119.208 550.509L284.395 495.445C286.585 494.715 288.95 494.695 291.152 495.387L480.249 554.832C483.027 555.706 485.344 557.648 486.688 560.231L551.281 684.348Z" stroke="url(#paint5_linear_2473_9389)" stroke-width="0.447605"/>
<path opacity="0.101449" d="M553.038 662.459C555.47 666.606 554.918 671.852 551.677 675.402L458.039 777.967C456.072 780.121 453.329 781.403 450.415 781.529L254.289 790.027C251.975 790.127 249.689 789.493 247.758 788.214L103.896 692.924C100.488 690.666 98.6187 686.701 99.0461 682.635L111.801 561.277C112.229 557.211 114.882 553.721 118.685 552.221L279.215 488.925C281.369 488.075 283.737 487.929 285.98 488.509L476.053 537.598C478.877 538.327 481.294 540.151 482.77 542.667L553.038 662.459Z" stroke="url(#paint6_linear_2473_9389)" stroke-width="0.447605"/>
<path opacity="0.115942" d="M554.138 640.751C556.769 644.757 556.494 650.008 553.458 653.717L466.159 760.392C464.309 762.653 461.634 764.082 458.726 764.363L265.226 783.034C262.913 783.257 260.589 782.74 258.589 781.557L111.416 694.502C107.902 692.424 105.834 688.566 106.048 684.489L112.395 563.38C112.608 559.304 115.069 555.683 118.78 553.983L274.247 482.789C276.36 481.822 278.725 481.55 281.002 482.014L471.49 520.809C474.352 521.392 476.864 523.093 478.468 525.535L554.138 640.751Z" stroke="url(#paint7_linear_2473_9389)" stroke-width="0.447605"/>
<path opacity="0.130435" d="M554.595 619.258C557.417 623.114 557.417 628.354 554.595 632.21L473.806 742.616C472.078 744.977 469.478 746.55 466.585 746.985L276.233 775.578C273.928 775.924 271.572 775.527 269.508 774.443L119.486 695.707C115.877 693.813 113.616 690.073 113.616 685.997L113.616 565.472C113.616 561.395 115.877 557.656 119.486 555.761L269.508 477.025C271.572 475.942 273.928 475.544 276.233 475.891L466.585 504.484C469.478 504.918 472.078 506.491 473.806 508.852L554.595 619.258Z" stroke="url(#paint8_linear_2473_9389)" stroke-width="0.447605"/>
<path opacity="0.144928" d="M554.417 598.012C557.421 601.709 557.695 606.923 555.094 610.915L480.964 724.663C479.364 727.119 476.848 728.831 473.977 729.419L287.276 767.656C284.985 768.125 282.603 767.85 280.479 766.869L128.072 696.51C124.377 694.804 121.93 691.192 121.717 687.127L115.449 567.517C115.236 563.452 117.291 559.604 120.788 557.521L265.006 471.617C267.015 470.42 269.355 469.897 271.683 470.124L461.358 488.635C464.274 488.92 466.956 490.36 468.804 492.635L554.417 598.012Z" stroke="url(#paint9_linear_2473_9389)" stroke-width="0.447605"/>
<path opacity="0.15942" d="M553.636 577.048C556.813 580.578 557.357 585.752 554.983 589.866L487.638 706.565C486.171 709.108 483.746 710.956 480.906 711.696L298.339 759.273C296.068 759.865 293.667 759.713 291.489 758.838L137.158 696.889C133.386 695.375 130.761 691.9 130.337 687.859L117.895 569.486C117.47 565.444 119.315 561.499 122.69 559.234L260.768 466.551C262.717 465.243 265.034 464.595 267.379 464.702L455.847 473.282C458.78 473.415 461.536 474.719 463.5 476.9L553.636 577.048Z" stroke="url(#paint10_linear_2473_9389)" stroke-width="0.447605"/>
<path opacity="0.173913" d="M552.267 556.394C555.608 559.749 556.419 564.869 554.278 569.091L493.822 688.346C492.493 690.968 490.166 692.947 487.364 693.838L309.393 750.428C307.148 751.142 304.734 751.114 302.506 750.349L146.71 696.818C142.872 695.499 140.077 692.17 139.442 688.162L120.94 571.343C120.305 567.335 121.935 563.304 125.177 560.865L256.806 461.81C258.688 460.394 260.976 459.621 263.331 459.606L450.079 458.431C453.019 458.412 455.844 459.575 457.918 461.658L552.267 556.394Z" stroke="url(#paint11_linear_2473_9389)" stroke-width="0.447605"/>
<path opacity="0.188406" d="M550.336 536.08C553.83 539.252 554.904 544.304 553.001 548.622L499.514 670.033C498.327 672.728 496.105 674.832 493.35 675.872L320.412 741.126C318.201 741.961 315.779 742.058 313.508 741.404L156.7 696.275C152.806 695.154 149.848 691.979 149.006 688.016L124.571 573.058C123.728 569.095 125.139 564.991 128.24 562.384L253.136 457.376C254.945 455.855 257.197 454.959 259.557 454.822L444.084 444.095C447.024 443.924 449.91 444.943 452.09 446.922L550.336 536.08Z" stroke="url(#paint12_linear_2473_9389)" stroke-width="0.447605"/>
<path opacity="0.202899" d="M547.863 516.135C551.502 519.116 552.833 524.086 551.173 528.488L504.713 651.654C503.671 654.414 501.562 656.638 498.861 657.824L331.371 731.372C329.2 732.326 326.777 732.549 324.467 732.01L167.095 695.24C163.156 694.32 160.044 691.307 158.997 687.4L128.773 574.601C127.726 570.694 128.915 566.528 131.865 563.762L249.769 453.233C251.5 451.61 253.71 450.593 256.067 450.333L437.891 430.282C440.824 429.959 443.762 430.83 446.044 432.7L547.863 516.135Z" stroke="url(#paint13_linear_2473_9389)" stroke-width="0.447605"/>
<path opacity="0.217391" d="M544.882 496.584C548.654 499.369 550.238 504.244 548.824 508.714L509.425 633.236C508.534 636.053 506.543 638.392 503.904 639.721L342.252 721.172C340.126 722.244 337.709 722.594 335.366 722.17L177.871 693.697C173.898 692.978 170.64 690.134 169.392 686.294L133.537 575.943C132.289 572.102 133.253 567.887 136.045 564.97L246.725 449.361C248.372 447.642 250.533 446.505 252.882 446.122L431.538 417C434.454 416.525 437.439 417.246 439.816 419.002L544.882 496.584Z" stroke="url(#paint14_linear_2473_9389)" stroke-width="0.447605"/>
<path opacity="0.231884" d="M541.414 477.451C545.308 480.034 547.138 484.8 545.972 489.325L513.648 614.804C512.91 617.671 511.044 620.117 508.475 621.587L353.023 710.534C350.949 711.72 348.545 712.197 346.175 711.892L188.989 691.626C184.991 691.111 181.598 688.443 180.153 684.68L138.84 577.054C137.395 573.291 138.132 569.038 140.758 565.98L244.009 445.742C245.566 443.929 247.672 442.675 250.008 442.169L425.048 404.252C427.94 403.625 430.964 404.195 433.431 405.831L541.414 477.451Z" stroke="url(#paint15_linear_2473_9389)" stroke-width="0.447605"/>
<path opacity="0.246377" d="M537.487 458.76C541.492 461.135 543.561 465.781 542.646 470.347L517.387 596.386C516.804 599.294 515.069 601.841 512.577 603.448L363.664 699.467C361.648 700.767 359.262 701.37 356.871 701.184L200.418 689.016C196.406 688.704 192.887 686.22 191.25 682.544L144.664 577.91C143.027 574.234 143.536 569.956 145.988 566.766L241.634 442.357C243.095 440.456 245.14 439.086 247.455 438.458L418.453 392.043C421.315 391.266 424.369 391.681 426.92 393.194L537.487 458.76Z" stroke="url(#paint16_linear_2473_9389)" stroke-width="0.447605"/>
<path opacity="0.26087" d="M533.131 440.529C537.237 442.692 539.536 447.206 538.873 451.799L520.648 578.006C520.223 580.946 518.624 583.588 516.217 585.327L374.151 687.98C372.2 689.39 369.839 690.119 367.432 690.054L212.125 685.853C208.109 685.744 204.474 683.449 202.65 679.869L150.991 578.483C149.167 574.903 149.447 570.613 151.719 567.301L239.608 439.185C240.97 437.2 242.948 435.718 245.235 434.968L411.787 380.372C414.61 379.447 417.687 379.707 420.315 381.091L533.131 440.529Z" stroke="url(#paint17_linear_2473_9389)" stroke-width="0.447605"/>
<path opacity="0.275362" d="M528.378 422.78C532.572 424.727 535.095 429.096 534.684 433.702L523.439 559.689C523.175 562.653 521.717 565.382 519.401 567.25L384.465 676.086C382.584 677.603 380.254 678.456 377.838 678.513L224.077 682.127C220.068 682.221 216.327 680.12 214.322 676.647L157.801 578.749C155.796 575.276 155.846 570.986 157.932 567.561L237.943 436.207C239.2 434.143 241.104 432.552 243.359 431.681L405.08 369.241C407.856 368.17 410.949 368.272 413.648 369.525L528.378 422.78Z" stroke="url(#paint18_linear_2473_9389)" stroke-width="0.447605"/>
<path opacity="0.289855" d="M523.257 405.528C527.528 407.255 530.264 411.469 530.105 416.074L525.767 541.459C525.664 544.438 524.352 547.247 522.135 549.239L394.583 663.795C392.777 665.416 390.485 666.393 388.066 666.572L236.239 677.828C232.247 678.124 228.411 676.222 226.231 672.865L165.07 578.685C162.89 575.328 162.712 571.049 164.606 567.523L236.642 433.4C237.79 431.263 239.615 429.566 241.83 428.577L398.362 358.646C401.084 357.43 404.183 357.375 406.947 358.492L523.257 405.528Z" stroke="url(#paint19_linear_2473_9389)" stroke-width="0.447605"/>
<path opacity="0.304348" d="M517.799 388.79C522.136 390.295 525.076 394.343 525.168 398.932L527.641 523.342C527.7 526.328 526.539 529.209 524.426 531.319L404.483 651.123C402.759 652.845 400.512 653.943 398.095 654.246L248.576 672.953C244.612 673.449 240.691 671.75 238.343 668.518L172.774 578.27C170.426 575.038 170.021 570.784 171.718 567.167L235.714 430.748C236.748 428.542 238.488 426.744 240.658 425.637L391.663 348.585C394.323 347.228 397.421 347.014 400.242 347.993L517.799 388.79Z" stroke="url(#paint20_linear_2473_9389)" stroke-width="0.447605"/>
<path opacity="0.318841" d="M512.039 372.578C516.429 373.858 519.564 377.73 519.904 382.291L529.074 505.358C529.296 508.342 528.29 511.286 526.288 513.51L414.149 638.083C412.513 639.901 410.315 641.12 407.907 641.545L261.057 667.495C257.13 668.189 253.136 666.697 250.626 663.597L180.893 577.484C178.383 574.385 177.754 570.168 179.249 566.471L235.164 428.225C236.081 425.958 237.73 424.062 239.848 422.839L385.014 339.051C387.605 337.556 390.695 337.184 393.567 338.021L512.039 372.578Z" stroke="url(#paint21_linear_2473_9389)" stroke-width="0.447605"/>
<path opacity="0.333333" d="M506.007 356.904C510.44 357.959 513.758 361.644 514.344 366.163L530.076 487.532C530.461 490.504 529.613 493.505 527.728 495.836L423.561 624.693C422.017 626.603 419.876 627.939 417.483 628.488L273.645 661.454C269.765 662.343 265.709 661.06 263.046 658.102L189.399 576.31C186.736 573.352 185.884 569.184 187.174 565.418L234.995 425.815C235.791 423.491 237.343 421.502 239.404 420.166L378.444 330.039C380.959 328.408 384.032 327.878 386.948 328.572L506.007 356.904Z" stroke="url(#paint22_linear_2473_9389)" stroke-width="0.447605"/>
<path opacity="0.347826" d="M499.74 341.776C504.203 342.604 507.694 346.096 508.522 350.558L530.662 469.882C531.21 472.835 530.523 475.882 528.762 478.315L432.704 610.966C431.257 612.964 429.179 614.415 426.806 615.087L286.309 654.826C282.487 655.908 278.379 654.837 275.57 652.028L198.27 574.728C195.461 571.919 194.391 567.811 195.472 563.989L235.212 423.492C235.883 421.119 237.335 419.041 239.332 417.595L371.984 321.536C374.416 319.775 377.464 319.088 380.416 319.636L499.74 341.776Z" stroke="url(#paint23_linear_2473_9389)" stroke-width="0.447605"/>
<path opacity="0.362319" d="M493.263 327.203C497.744 327.804 501.397 331.093 502.463 335.486L530.84 452.43C531.55 455.354 531.027 458.441 529.394 460.967L441.553 596.921C440.209 599.002 438.2 600.566 435.854 601.359L299.009 647.616C295.253 648.885 291.105 648.029 288.159 645.376L207.471 572.725C204.525 570.072 203.24 566.036 204.11 562.169L235.809 421.238C236.353 418.822 237.698 416.66 239.627 415.106L365.654 313.535C367.997 311.647 371.012 310.805 373.994 311.205L493.263 327.203Z" stroke="url(#paint24_linear_2473_9389)" stroke-width="0.447605"/>
<path opacity="0.376812" d="M486.618 313.19C491.105 313.564 494.907 316.643 496.206 320.954L530.632 435.196C531.502 438.082 531.145 441.199 529.646 443.814L450.102 582.577C448.865 584.735 446.931 586.409 444.617 587.323L311.717 639.826C308.038 641.279 303.861 640.639 300.787 638.149L216.984 570.287C213.91 567.797 212.415 563.845 213.071 559.944L236.796 419.032C237.209 416.579 238.443 414.339 240.297 412.681L359.49 306.024C361.736 304.014 364.711 303.017 367.714 303.268L486.618 313.19Z" stroke="url(#paint25_linear_2473_9389)" stroke-width="0.447605"/>
<path opacity="0.391304" d="M479.835 299.74C484.317 299.889 488.256 302.751 489.783 306.967L530.052 418.198C531.08 421.038 530.892 424.176 529.531 426.872L458.334 567.953C457.208 570.183 455.355 571.962 453.08 572.996L324.401 631.462C320.807 633.095 316.612 632.67 313.419 630.35L226.78 567.403C223.586 565.082 221.886 561.224 222.328 557.302L238.169 416.853C238.449 414.371 239.568 412.058 241.341 410.298L353.516 298.989C355.66 296.862 358.586 295.713 361.604 295.814L479.835 299.74Z" stroke="url(#paint26_linear_2473_9389)" stroke-width="0.447605"/>
<path opacity="0.405797" d="M472.947 286.854C477.412 286.779 481.476 289.418 483.223 293.527L529.116 401.452C530.3 404.236 530.281 407.386 529.063 410.157L466.235 553.065C465.225 555.363 463.458 557.244 461.228 558.396L337.025 622.529C333.525 624.337 329.325 624.128 326.021 621.983L236.828 564.06C233.525 561.914 231.625 558.162 231.853 554.229L239.924 414.68C240.069 412.174 241.069 409.794 242.757 407.937L347.756 292.415C349.792 290.175 352.662 288.877 355.687 288.826L472.947 286.854Z" stroke="url(#paint27_linear_2473_9389)" stroke-width="0.447605"/>
<path opacity="0.42029" d="M465.984 274.533C470.421 274.236 474.597 276.648 476.558 280.638L527.838 384.975C529.175 387.697 529.326 390.85 528.255 393.686L473.79 537.938C472.9 540.296 471.224 542.276 469.045 543.544L349.557 613.04C346.16 615.016 341.964 615.023 338.56 613.057L247.099 560.252C243.696 558.287 241.604 554.651 241.616 550.72L242.058 412.493C242.066 409.972 242.943 407.53 244.54 405.58L342.233 286.286C344.154 283.94 346.96 282.495 349.985 282.292L465.984 274.533Z" stroke="url(#paint28_linear_2473_9389)" stroke-width="0.447605"/>
<path opacity="0.434783" d="M458.984 262.774C463.381 262.258 467.656 264.437 469.824 268.297L526.242 368.783C527.729 371.432 528.051 374.579 527.13 377.474L480.994 522.589C480.227 525.003 478.648 527.077 476.525 528.458L361.97 603.003C358.683 605.141 354.504 605.362 351.01 603.582L257.57 555.972C254.076 554.192 251.798 550.681 251.597 546.765L244.571 410.272C244.44 407.742 245.19 405.246 246.692 403.206L336.974 280.585C338.775 278.138 341.51 276.549 344.528 276.195L458.984 262.774Z" stroke="url(#paint29_linear_2473_9389)" stroke-width="0.447605"/>
<path opacity="0.449275" d="M451.975 251.573C456.321 250.842 460.682 252.784 463.047 256.503L524.342 352.889C525.975 355.457 526.467 358.589 525.701 361.535L487.833 507.041C487.192 509.504 485.714 511.667 483.654 513.16L374.229 592.43C371.061 594.726 366.91 595.159 363.335 593.568L268.207 551.214C264.633 549.623 262.177 546.248 261.763 542.357L247.453 407.997C247.183 405.466 247.802 402.921 249.204 400.797L331.997 275.293C333.673 272.752 336.33 271.022 339.332 270.517L451.975 251.573Z" stroke="url(#paint30_linear_2473_9389)" stroke-width="0.447605"/>
<path opacity="0.463768" d="M444.989 240.923C449.274 239.981 453.708 241.683 456.262 245.25L522.158 337.305C523.934 339.785 524.596 342.893 523.986 345.881L494.299 491.315C493.788 493.821 492.417 496.068 490.424 497.67L386.308 581.337C383.266 583.782 379.153 584.425 375.509 583.027L278.984 545.974C275.34 544.575 272.714 541.345 272.089 537.492L250.7 405.649C250.29 403.125 250.776 400.537 252.072 398.333L327.325 270.39C328.871 267.761 331.443 265.895 334.422 265.24L444.989 240.923Z" stroke="url(#paint31_linear_2473_9389)" stroke-width="0.447605"/>
<path opacity="0.478261" d="M438.061 230.818C442.274 229.669 446.767 231.129 449.5 234.535L519.715 322.044C521.628 324.428 522.459 327.502 522.008 330.525L500.389 475.434C500.009 477.975 498.75 480.303 496.83 482.01L398.181 569.739C395.272 572.326 391.208 573.177 387.505 571.974L289.875 540.252C286.171 539.049 283.384 535.972 282.551 532.168L254.308 403.21C253.758 400.7 254.107 398.077 255.295 395.798L322.979 265.857C324.391 263.146 326.871 261.147 329.819 260.343L438.061 230.818Z" stroke="url(#paint32_linear_2473_9389)" stroke-width="0.447605"/>
<path opacity="0.492754" d="M431.213 221.248C435.344 219.897 439.883 221.113 442.785 224.349L517.024 307.115C519.069 309.395 520.068 312.427 519.778 315.476L506.089 459.418C505.844 461.989 504.701 464.391 502.859 466.201L409.815 557.652C407.044 560.375 403.041 561.429 399.289 560.424L300.844 534.046C297.093 533.04 294.152 530.126 293.115 526.383L258.262 400.661C257.572 398.173 257.782 395.521 258.856 393.172L318.972 261.67C320.246 258.885 322.626 256.758 325.537 255.806L431.213 221.248Z" stroke="url(#paint33_linear_2473_9389)" stroke-width="0.447605"/>
<path opacity="0.507246" d="M424.486 212.201C428.525 210.654 433.096 211.626 436.157 214.682L514.118 292.528C516.289 294.697 517.453 297.677 517.326 300.743L511.405 443.29C511.298 445.884 510.274 448.355 508.516 450.264L421.193 545.096C418.569 547.946 414.635 549.2 410.846 548.394L311.876 527.358C308.086 526.552 305.003 523.807 303.765 520.136L262.563 397.985C261.734 395.526 261.803 392.852 262.76 390.439L315.33 257.808C316.461 254.955 318.736 252.706 321.603 251.608L424.486 212.201Z" stroke="url(#paint34_linear_2473_9389)" stroke-width="0.447605"/>
<path opacity="0.521739" d="M417.897 203.666C421.835 201.929 426.425 202.656 429.633 205.525L511.005 278.292C513.298 280.342 514.624 283.261 514.661 286.337L516.325 427.075C516.355 429.683 515.455 432.217 513.786 434.222L432.282 532.091C429.809 535.06 425.956 536.509 422.14 535.904L322.931 520.191C319.114 519.587 315.897 517.018 314.463 513.43L267.192 395.165C266.223 392.743 266.15 390.055 266.986 387.583L312.059 254.248C313.044 251.334 315.207 248.968 318.022 247.726L417.897 203.666Z" stroke="url(#paint35_linear_2473_9389)" stroke-width="0.447605"/>
<path opacity="0.536232" d="M411.48 195.627C415.308 193.707 419.903 194.19 423.248 196.864L507.715 264.41C510.122 266.335 511.608 269.185 511.809 272.261L520.851 410.791C521.022 413.408 520.249 416 518.673 418.096L443.065 518.656C440.749 521.736 436.987 523.375 433.154 522.972L333.989 512.549C330.156 512.146 326.816 509.761 325.192 506.267L272.144 392.184C271.038 389.806 270.821 387.111 271.532 384.587L309.179 250.963C310.014 247.996 312.06 245.518 314.815 244.136L411.48 195.627Z" stroke="url(#paint36_linear_2473_9389)" stroke-width="0.447605"/>
<path opacity="0.550725" d="M405.259 188.07C408.968 185.973 413.555 186.213 417.024 188.687L504.265 250.891C506.78 252.684 508.422 255.455 508.788 258.523L524.981 394.464C525.293 397.082 524.651 399.724 523.173 401.908L453.518 504.815C451.364 507.998 447.701 509.82 443.863 509.619L345.021 504.439C341.183 504.238 337.731 502.042 335.921 498.652L277.404 389.028C276.163 386.702 275.801 384.006 276.385 381.435L306.699 247.932C307.383 244.919 309.306 242.335 311.995 240.814L405.259 188.07Z" stroke="url(#paint37_linear_2473_9389)" stroke-width="0.447605"/>
<path opacity="0.565217" d="M399.263 180.977C402.844 178.71 407.411 178.71 410.992 180.977L500.68 237.737C503.296 239.392 505.091 242.076 505.62 245.127L528.718 378.114C529.172 380.726 528.664 383.414 527.289 385.68L463.624 490.591C461.636 493.867 458.082 495.868 454.249 495.868L356.005 495.868C352.173 495.868 348.618 493.867 346.63 490.591L282.966 385.68C281.591 383.413 281.083 380.726 281.536 378.114L304.634 245.127C305.164 242.076 306.958 239.392 309.574 237.737L399.263 180.977Z" stroke="url(#paint38_linear_2473_9389)" stroke-width="0.447605"/>
<path opacity="0.57971" d="M393.508 174.329C396.954 171.902 401.487 171.664 405.168 173.718L496.976 224.951C499.685 226.463 501.627 229.052 502.321 232.076L532.058 361.764C532.654 364.362 532.283 367.089 531.015 369.433L473.359 476.007C471.541 479.368 468.104 481.54 464.288 481.74L366.909 486.844C363.093 487.044 359.448 485.243 357.288 482.09L288.809 382.127C287.302 379.928 286.648 377.255 286.969 374.609L302.988 242.523C303.361 239.443 305.022 236.665 307.559 234.878L393.508 174.329Z" stroke="url(#paint39_linear_2473_9389)" stroke-width="0.447605"/>
<path opacity="0.594203" d="M388.026 168.109C391.33 165.529 395.815 165.057 399.583 166.895L493.18 212.536C495.976 213.899 498.061 216.385 498.917 219.375L535.012 345.438C535.75 348.015 535.518 350.773 534.361 353.191L482.713 461.091C481.068 464.528 477.757 466.864 473.968 467.262L377.717 477.379C373.928 477.777 370.204 476.18 367.88 473.16L294.927 378.357C293.292 376.232 292.492 373.582 292.678 370.908L301.775 240.095C301.99 236.993 303.513 234.128 305.964 232.214L388.026 168.109Z" stroke="url(#paint40_linear_2473_9389)" stroke-width="0.447605"/>
<path opacity="0.608696" d="M382.831 162.295C385.986 159.57 390.413 158.869 394.255 160.486L489.31 200.493C492.182 201.702 494.405 204.076 495.422 207.022L537.578 329.154C538.458 331.703 538.368 334.487 537.325 336.973L491.665 445.867C490.196 449.37 487.019 451.863 483.267 452.457L388.4 467.483C384.648 468.077 380.856 466.688 378.376 463.81L301.301 374.356C299.541 372.313 298.595 369.694 298.644 366.998L300.996 237.816C301.053 234.7 302.433 231.755 304.792 229.717L382.831 162.295Z" stroke="url(#paint41_linear_2473_9389)" stroke-width="0.447605"/>
<path opacity="0.623188" d="M377.945 156.864C380.944 154.003 385.3 153.077 389.203 154.471L485.385 188.817C488.327 189.868 490.681 192.123 491.857 195.018L539.762 312.935C540.783 315.447 540.836 318.249 539.912 320.799L500.203 430.36C498.913 433.92 495.877 436.563 492.173 437.35L398.935 457.168C395.231 457.955 391.383 456.776 388.756 454.049L307.917 370.111C306.036 368.158 304.945 365.576 304.856 362.866L300.658 235.658C300.555 232.536 301.788 229.518 304.049 227.362L377.945 156.864Z" stroke="url(#paint42_linear_2473_9389)" stroke-width="0.447605"/>
<path opacity="0.637681" d="M373.385 151.795C376.223 148.807 380.495 147.663 384.447 148.831L481.427 177.512C484.429 178.4 486.909 180.529 488.241 183.363L541.57 296.802C542.731 299.271 542.93 302.085 542.127 304.692L508.314 414.6C507.204 418.208 504.316 420.991 500.67 421.968L409.301 446.451C405.655 447.428 401.763 446.461 398.998 443.892L314.76 365.615C312.762 363.758 311.527 361.222 311.298 358.504L300.762 233.597C300.499 230.477 301.582 227.394 303.738 225.124L373.385 151.795Z" stroke="url(#paint43_linear_2473_9389)" stroke-width="0.447605"/>
<path opacity="0.652174" d="M369.172 147.064C371.843 143.959 376.021 142.601 380.007 143.543L477.459 166.571C480.513 167.293 483.112 169.288 484.597 172.053L543.014 280.775C544.313 283.193 544.658 286.01 543.981 288.671L515.991 398.614C515.063 402.259 512.331 405.175 508.752 406.338L419.481 435.344C415.903 436.506 411.979 435.753 409.085 433.349L321.818 360.856C319.706 359.102 318.329 356.619 317.959 353.899L301.314 231.605C300.891 228.495 301.82 225.353 303.867 222.974L369.172 147.064Z" stroke="url(#paint44_linear_2473_9389)" stroke-width="0.447605"/>
<path opacity="0.666667" d="M365.318 142.647C367.818 139.435 371.891 137.871 375.898 138.586L473.499 155.992C476.596 156.544 479.306 158.4 480.941 161.087L544.099 264.874C545.535 267.233 546.028 270.048 545.479 272.755L523.224 382.429C522.479 386.103 519.907 389.142 516.407 390.486L429.454 423.864C425.953 425.208 422.009 424.67 418.996 422.438L329.072 355.826C326.852 354.182 325.335 351.76 324.823 349.046L302.312 229.656C301.729 226.565 302.502 223.372 304.433 220.89L365.318 142.647Z" stroke="url(#paint45_linear_2473_9389)" stroke-width="0.447605"/>
<path opacity="0.681159" d="M361.838 138.519C364.162 135.208 368.12 133.446 372.135 133.934L469.566 145.767C472.696 146.147 475.511 147.857 477.293 150.459L544.837 249.116C546.407 251.41 547.048 254.215 546.629 256.963L530.007 366.073C529.444 369.766 527.039 372.919 523.626 374.439L439.201 412.027C435.788 413.547 431.835 413.224 428.714 411.171L336.507 350.515C334.184 348.988 332.529 346.635 331.875 343.933L303.754 227.723C303.012 224.658 303.626 221.423 305.438 218.842L361.838 138.519Z" stroke="url(#paint46_linear_2473_9389)" stroke-width="0.447605"/>
<path opacity="0.695652" d="M358.741 134.654C360.886 131.256 364.718 129.303 368.728 129.565L465.677 135.893C468.831 136.099 471.743 137.656 473.666 140.164L545.234 233.522C546.937 235.742 547.726 238.53 547.44 241.313L536.33 349.574C535.95 353.278 533.717 356.536 530.4 358.226L448.703 399.853C445.386 401.543 441.438 401.435 438.218 399.565L344.103 344.919C341.683 343.514 339.892 341.237 339.096 338.555L305.635 225.78C304.735 222.75 305.188 219.479 306.875 216.807L358.741 134.654Z" stroke="url(#paint47_linear_2473_9389)" stroke-width="0.447605"/>
<path opacity="0.710145" d="M356.043 131.028C358.006 127.552 361.703 125.418 365.695 125.455L461.856 126.363C465.024 126.392 468.025 127.791 470.085 130.199L545.309 218.11C547.141 220.25 548.078 223.013 547.928 225.825L542.198 332.964C542 336.668 539.943 340.021 536.731 341.876L457.95 387.36C454.738 389.214 450.806 389.319 447.499 387.639L351.849 339.031C349.338 337.755 347.414 335.562 346.477 332.906L307.956 223.804C306.901 220.816 307.19 217.518 308.748 214.76L356.043 131.028Z" stroke="url(#paint48_linear_2473_9389)" stroke-width="0.447605"/>
<path opacity="0.724638" d="M353.748 127.612C355.526 124.069 359.079 121.761 363.04 121.577L458.115 117.165C461.288 117.018 464.368 118.253 466.56 120.552L545.069 202.894C547.026 204.946 548.112 207.677 548.098 210.512L547.603 316.267C547.586 319.962 545.709 323.4 542.61 325.413L466.923 374.564C463.824 376.577 459.919 376.893 456.537 375.406L359.724 332.845C357.128 331.703 355.075 329.601 353.996 326.978L310.705 221.765C309.497 218.828 309.621 215.511 311.046 212.673L353.748 127.612Z" stroke="url(#paint49_linear_2473_9389)" stroke-width="0.447605"/>
<path opacity="0.73913" d="M351.864 124.382C353.457 120.781 356.857 118.311 360.774 117.909L454.473 108.294C457.641 107.969 460.793 109.037 463.111 111.22L544.53 187.893C546.608 189.85 547.842 192.542 547.967 195.394L552.547 299.514C552.709 303.191 551.015 306.704 548.037 308.868L475.609 361.49C472.631 363.654 468.767 364.179 465.32 362.889L367.711 326.358C365.037 325.357 362.859 323.352 361.639 320.77L313.878 219.643C312.519 216.764 312.477 213.436 313.765 210.525L351.864 124.382Z" stroke="url(#paint50_linear_2473_9389)" stroke-width="0.447605"/>
<path opacity="0.753623" d="M350.395 121.311C351.8 117.663 355.041 115.039 358.901 114.423L450.944 99.7387C454.097 99.2358 457.311 100.131 459.749 102.191L543.702 173.121C545.898 174.977 547.278 177.621 547.544 180.484L557.03 282.732C557.368 286.382 555.861 289.96 553.012 292.267L483.995 348.155C481.146 350.462 477.333 351.193 473.833 350.103L375.792 319.566C373.047 318.711 370.747 316.812 369.388 314.277L317.463 217.412C315.955 214.599 315.748 211.268 316.895 208.29L350.395 121.311Z" stroke="url(#paint51_linear_2473_9389)" stroke-width="0.447605"/>
<path opacity="0.768116" d="M349.353 118.37C350.57 114.685 353.643 111.918 357.435 111.093L447.552 91.4876C450.679 90.8073 453.947 91.5268 456.499 93.4571L542.609 158.591C544.92 160.339 546.445 162.929 546.851 165.797L561.062 265.947C561.575 269.562 560.255 273.194 557.542 275.637L492.079 334.581C489.366 337.024 485.615 337.956 482.074 337.068L383.957 312.467C381.148 311.763 378.731 309.975 377.235 307.495L321.458 215.048C319.805 212.308 319.432 208.983 320.435 205.944L349.353 118.37Z" stroke="url(#paint52_linear_2473_9389)" stroke-width="0.447605"/>
<path opacity="0.782609" d="M348.728 115.535C349.756 111.823 352.656 108.923 356.368 107.895L444.3 83.53C447.391 82.6733 450.703 83.2134 453.362 85.0078L541.257 144.319C543.676 145.951 545.344 148.48 545.893 151.345L564.638 249.188C565.322 252.758 564.192 256.436 561.622 259.006L499.839 320.789C497.268 323.359 493.591 324.489 490.021 323.805L392.178 305.06C389.313 304.511 386.784 302.843 385.152 300.424L325.841 212.529C324.046 209.87 323.506 206.558 324.363 203.467L348.728 115.535Z" stroke="url(#paint53_linear_2473_9389)" stroke-width="0.447605"/>
<path opacity="0.797101" d="M348.529 112.778C349.37 109.05 352.091 106.029 355.71 104.803L441.21 75.8542C444.256 74.8228 447.602 75.1806 450.361 76.833L539.669 130.315C542.191 131.826 544.002 134.286 544.693 137.144L567.772 232.482C568.624 236 567.685 239.711 565.263 242.4L507.277 306.801C504.855 309.49 501.263 310.812 497.675 310.333L400.447 297.346C397.533 296.956 394.897 295.413 393.131 293.063L330.606 209.834C328.674 207.263 327.969 203.973 328.676 200.836L348.529 112.778Z" stroke="url(#paint54_linear_2473_9389)" stroke-width="0.447605"/>
<path opacity="0.811594" d="M348.754 110.073C349.407 106.339 351.944 103.207 355.461 101.791L438.293 68.4459C441.284 67.2418 444.654 67.4151 447.505 68.9198L537.86 116.592C540.481 117.974 542.43 120.358 543.265 123.201L570.471 215.853C571.486 219.31 570.738 223.044 568.471 225.844L514.383 292.637C512.116 295.437 508.619 296.944 505.026 296.67L408.743 289.322C405.789 289.097 403.051 287.686 401.154 285.41L335.738 206.941C333.673 204.464 332.803 201.204 333.359 198.028L348.754 110.073Z" stroke="url(#paint55_linear_2473_9389)" stroke-width="0.447605"/>
<path opacity="0.826087" d="M349.393 107.396C349.862 103.665 352.209 100.434 355.613 98.836L435.556 61.2948C438.482 59.9206 441.865 59.9076 444.802 61.2592L535.843 103.161C538.556 104.409 540.642 106.71 541.62 109.532L572.738 199.329C573.912 202.717 573.356 206.465 571.249 209.366L521.149 278.323C519.041 281.223 515.648 282.911 512.064 282.841L417.045 280.995C414.059 280.937 411.226 279.664 409.201 277.469L341.217 203.832C339.024 201.457 337.99 198.235 338.393 195.027L349.393 107.396Z" stroke="url(#paint56_linear_2473_9389)" stroke-width="0.447605"/>
<path opacity="0.84058" d="M350.452 104.719C350.738 101.001 352.892 97.6828 356.173 95.9101L433.018 54.3836C435.87 52.8427 439.257 52.6421 442.27 53.8357L533.644 90.0284C536.443 91.137 538.664 93.3476 539.784 96.1417L574.595 182.932C575.923 186.244 575.557 189.995 573.613 192.987L527.578 263.876C525.634 266.869 522.356 268.729 518.791 268.862L425.345 272.362C422.337 272.475 419.415 271.346 417.263 269.24L347.034 200.486C344.718 198.219 343.524 195.043 343.772 191.811L350.452 104.719Z" stroke="url(#paint57_linear_2473_9389)" stroke-width="0.447605"/>
<path opacity="0.855072" d="M351.921 102.018C352.026 98.3231 353.985 94.9293 357.133 92.9909L430.687 47.7001C433.454 45.9962 436.834 45.6073 439.916 46.6384L531.278 77.2051C534.157 78.1682 536.508 80.2814 537.771 83.0416L576.047 166.687C577.525 169.915 577.348 173.659 575.573 176.733L533.664 249.321C531.889 252.396 528.735 254.421 525.201 254.756L433.624 263.43C430.602 263.716 427.596 262.737 425.323 260.726L353.17 196.887C350.736 194.734 349.383 191.612 349.475 188.363L351.921 102.018Z" stroke="url(#paint58_linear_2473_9389)" stroke-width="0.447605"/>
<path opacity="0.869565" d="M353.792 99.2697C353.72 95.6064 355.481 92.1488 358.488 90.0543L428.57 41.2291C431.244 39.3666 434.607 38.7893 437.749 39.6537L528.763 64.6975C531.715 65.5097 534.193 67.5187 535.597 70.2386L577.111 150.616C578.731 153.754 578.742 157.48 577.138 160.627L539.406 234.68C537.803 237.827 534.782 240.009 531.291 240.542L441.864 254.202C438.837 254.664 435.756 253.84 433.364 251.93L359.606 193.018C357.06 190.984 355.55 187.924 355.485 184.666L353.792 99.2697Z" stroke="url(#paint59_linear_2473_9389)" stroke-width="0.447605"/>
<path opacity="0.884058" d="M356.059 96.4491C355.813 92.8268 357.375 89.3174 360.232 87.0767L426.679 34.9555C429.249 32.9392 432.585 32.1739 435.777 32.8681L526.12 52.5117C529.137 53.1678 531.738 55.0656 533.284 57.7389L577.801 134.741C579.559 137.782 579.754 141.481 578.325 144.69L544.807 219.973C543.378 223.182 540.499 225.512 537.063 226.241L450.051 244.683C447.03 245.323 443.88 244.66 441.373 242.857L366.324 188.863C363.672 186.955 362.009 183.964 361.787 180.705L356.059 96.4491Z" stroke="url(#paint60_linear_2473_9389)" stroke-width="0.447605"/>
<path opacity="0.898551" d="M358.71 93.5329C358.294 89.9605 359.656 86.4113 362.356 84.0346L425.019 28.863C427.477 26.6984 430.775 25.7462 434.008 26.2668L523.367 40.6515C526.443 41.1467 529.163 42.9267 530.848 45.5472L578.133 119.082C580.023 122.02 580.399 125.682 579.147 128.943L549.867 205.221C548.615 208.482 545.885 210.952 542.515 211.871L458.171 234.878C455.165 235.698 451.952 235.2 449.335 233.51L373.304 184.408C370.552 182.631 368.739 179.717 368.36 176.463L358.71 93.5329Z" stroke="url(#paint61_linear_2473_9389)" stroke-width="0.447605"/>
<path opacity="0.913043" d="M361.731 90.4996C361.151 86.9855 362.313 83.4083 364.848 80.9065L423.594 22.9364C425.931 20.6295 429.18 19.4919 432.446 19.8362L520.52 29.1213C523.647 29.4509 526.482 31.1066 528.305 33.668L578.122 103.658C580.136 106.487 580.691 110.103 579.618 113.406L554.586 190.446C553.513 193.748 550.939 196.348 547.646 197.453L466.204 224.794C463.224 225.794 459.957 225.468 457.234 223.897L380.523 179.64C377.678 177.998 375.719 175.168 375.183 171.928L361.731 90.4996Z" stroke="url(#paint62_linear_2473_9389)" stroke-width="0.447605"/>
<path opacity="0.927536" d="M365.115 87.3295C364.375 83.8818 365.338 80.2884 367.703 77.6727L422.413 17.1614C424.621 14.7187 427.811 13.3978 431.1 13.5636L517.604 17.9251C520.774 18.0849 523.718 19.6098 525.678 22.1058L577.791 88.4881C579.922 91.2033 580.651 94.7637 579.758 98.0981L558.973 175.668C558.079 179.002 555.668 181.722 552.464 183.007L474.142 214.44C471.197 215.621 467.884 215.47 465.06 214.023L387.964 174.548C385.033 173.047 382.931 170.309 382.24 167.089L365.115 87.3295Z" stroke="url(#paint63_linear_2473_9389)" stroke-width="0.447605"/>
<path opacity="0.942029" d="M368.847 84C367.952 80.6265 368.717 77.0287 370.906 74.3107L421.481 11.5197C423.552 8.94816 426.671 7.44677 429.973 7.43234L514.638 7.06203C517.841 7.04801 520.891 8.43579 522.985 10.8606L577.157 73.5877C579.399 76.184 580.297 79.68 579.584 83.0355L563.032 160.906C562.319 164.262 560.076 167.09 556.972 168.55L481.97 203.821C479.071 205.184 475.72 205.211 472.799 203.895L395.605 169.121C392.595 167.765 390.356 165.124 389.509 161.933L368.847 84Z" stroke="url(#paint64_linear_2473_9389)" stroke-width="0.447605"/>
<path opacity="0.956522" d="M372.914 80.4947C371.872 77.2028 372.44 73.6121 374.449 70.8035L420.803 5.9979C422.729 3.30512 425.768 1.62659 429.073 1.43064L511.642 -3.46483C514.872 -3.65633 518.022 -2.41182 520.248 -0.0643065L576.244 58.9746C578.589 61.4475 579.652 64.8704 579.118 68.2367L566.773 146.182C566.24 149.548 564.172 152.475 561.177 154.103L489.678 192.948C486.835 194.493 483.455 194.703 480.443 193.523L403.427 163.352C400.345 162.144 397.973 159.609 396.973 156.452L372.914 80.4947Z" stroke="url(#paint65_linear_2473_9389)" stroke-width="0.447605"/>
<path opacity="0.971014" d="M377.29 76.7932C376.106 73.5899 376.481 70.0176 378.306 67.1306L420.37 0.57778C422.143 -2.22829 425.093 -4.08001 428.391 -4.45817L508.626 -13.6586C511.873 -14.0309 515.117 -12.9357 517.474 -10.6713L575.061 44.6604C577.502 47.006 578.723 50.3475 578.369 53.7144L570.192 131.512C569.838 134.878 567.949 137.893 565.074 139.68L497.241 181.829C494.465 183.554 491.064 183.951 487.966 182.912L411.396 157.231C408.249 156.175 405.749 153.751 404.598 150.637L377.29 76.7932Z" stroke="url(#paint66_linear_2473_9389)" stroke-width="0.447605"/>
<path opacity="0.985507" d="M381.971 72.8802C380.652 69.7721 380.837 66.2293 382.475 63.2762L420.197 -4.75498C421.811 -7.66591 424.66 -9.68623 427.941 -10.2468L505.622 -23.5195C508.877 -24.0756 512.209 -23.1354 514.693 -20.96L573.642 30.6595C576.171 32.8742 577.545 36.1265 577.369 39.4837L573.311 116.914C573.135 120.272 571.429 123.362 568.682 125.301L504.661 170.476C501.963 172.379 498.55 172.966 495.371 172.073L419.503 150.753C416.299 149.852 413.677 147.545 412.376 144.482L381.971 72.8802Z" stroke="url(#paint67_linear_2473_9389)" stroke-width="0.447605"/>
<path d="M386.936 68.7398C385.488 65.733 385.488 62.2304 386.936 59.2236L420.281 -10.0166C421.729 -13.0235 424.467 -15.2073 427.721 -15.9499L502.645 -33.0508C505.898 -33.7934 509.313 -33.014 511.922 -30.9333L572.007 16.9824C574.616 19.0632 576.136 22.2189 576.136 25.5563L576.136 102.407C576.136 105.744 574.616 108.9 572.007 110.981L511.922 158.897C509.313 160.977 505.898 161.757 502.645 161.014L427.721 143.913C424.467 143.171 421.729 140.987 420.281 137.98L386.936 68.7398Z" stroke="url(#paint68_linear_2473_9389)" stroke-width="0.447605"/>
<defs>
<linearGradient id="paint0_linear_2473_9389" x1="534.208" y1="803.362" x2="55.4429" y2="590.202" gradientUnits="userSpaceOnUse">
<stop stop-color="#8CF9B0"/>
<stop offset="1" stop-color="#FFDE02"/>
</linearGradient>
<linearGradient id="paint1_linear_2473_9389" x1="539.858" y1="780.984" x2="54.9117" y2="594.83" gradientUnits="userSpaceOnUse">
<stop stop-color="#8CF9B0"/>
<stop offset="1" stop-color="#FFDE02"/>
</linearGradient>
<linearGradient id="paint2_linear_2473_9389" x1="544.79" y1="758.579" x2="55.1644" y2="599.49" gradientUnits="userSpaceOnUse">
<stop stop-color="#8CF9B0"/>
<stop offset="1" stop-color="#FFDE02"/>
</linearGradient>
<linearGradient id="paint3_linear_2473_9389" x1="549.001" y1="736.184" x2="56.1889" y2="604.135" gradientUnits="userSpaceOnUse">
<stop stop-color="#8CF9B0"/>
<stop offset="1" stop-color="#FFDE02"/>
</linearGradient>
<linearGradient id="paint4_linear_2473_9389" x1="552.5" y1="713.841" x2="57.9766" y2="608.727" gradientUnits="userSpaceOnUse">
<stop stop-color="#8CF9B0"/>
<stop offset="1" stop-color="#FFDE02"/>
</linearGradient>
<linearGradient id="paint5_linear_2473_9389" x1="555.301" y1="691.588" x2="60.5224" y2="613.223" gradientUnits="userSpaceOnUse">
<stop stop-color="#8CF9B0"/>
<stop offset="1" stop-color="#FFDE02"/>
</linearGradient>
<linearGradient id="paint6_linear_2473_9389" x1="557.404" y1="669.461" x2="63.8025" y2="617.582" gradientUnits="userSpaceOnUse">
<stop stop-color="#8CF9B0"/>
<stop offset="1" stop-color="#FFDE02"/>
</linearGradient>
<linearGradient id="paint7_linear_2473_9389" x1="558.837" y1="647.498" x2="67.8156" y2="621.765" gradientUnits="userSpaceOnUse">
<stop stop-color="#8CF9B0"/>
<stop offset="1" stop-color="#FFDE02"/>
</linearGradient>
<linearGradient id="paint8_linear_2473_9389" x1="559.611" y1="625.734" x2="72.5414" y2="625.734" gradientUnits="userSpaceOnUse">
<stop stop-color="#8CF9B0"/>
<stop offset="1" stop-color="#FFDE02"/>
</linearGradient>
<linearGradient id="paint9_linear_2473_9389" x1="559.735" y1="604.202" x2="77.9524" y2="629.451" gradientUnits="userSpaceOnUse">
<stop stop-color="#8CF9B0"/>
<stop offset="1" stop-color="#FFDE02"/>
</linearGradient>
<linearGradient id="paint10_linear_2473_9389" x1="559.239" y1="582.939" x2="84.0379" y2="632.884" gradientUnits="userSpaceOnUse">
<stop stop-color="#8CF9B0"/>
<stop offset="1" stop-color="#FFDE02"/>
</linearGradient>
<linearGradient id="paint11_linear_2473_9389" x1="558.138" y1="561.972" x2="90.7715" y2="635.996" gradientUnits="userSpaceOnUse">
<stop stop-color="#8CF9B0"/>
<stop offset="1" stop-color="#FFDE02"/>
</linearGradient>
<linearGradient id="paint12_linear_2473_9389" x1="556.457" y1="541.334" x2="98.1292" y2="638.754" gradientUnits="userSpaceOnUse">
<stop stop-color="#8CF9B0"/>
<stop offset="1" stop-color="#FFDE02"/>
</linearGradient>
<linearGradient id="paint13_linear_2473_9389" x1="554.217" y1="521.052" x2="106.084" y2="641.129" gradientUnits="userSpaceOnUse">
<stop stop-color="#8CF9B0"/>
<stop offset="1" stop-color="#FFDE02"/>
</linearGradient>
<linearGradient id="paint14_linear_2473_9389" x1="551.45" y1="501.155" x2="114.614" y2="643.092" gradientUnits="userSpaceOnUse">
<stop stop-color="#8CF9B0"/>
<stop offset="1" stop-color="#FFDE02"/>
</linearGradient>
<linearGradient id="paint15_linear_2473_9389" x1="548.176" y1="481.667" x2="123.686" y2="644.614" gradientUnits="userSpaceOnUse">
<stop stop-color="#8CF9B0"/>
<stop offset="1" stop-color="#FFDE02"/>
</linearGradient>
<linearGradient id="paint16_linear_2473_9389" x1="544.424" y1="462.613" x2="133.269" y2="645.671" gradientUnits="userSpaceOnUse">
<stop stop-color="#8CF9B0"/>
<stop offset="1" stop-color="#FFDE02"/>
</linearGradient>
<linearGradient id="paint17_linear_2473_9389" x1="540.223" y1="444.013" x2="143.334" y2="646.238" gradientUnits="userSpaceOnUse">
<stop stop-color="#8CF9B0"/>
<stop offset="1" stop-color="#FFDE02"/>
</linearGradient>
<linearGradient id="paint18_linear_2473_9389" x1="535.606" y1="425.889" x2="153.85" y2="646.296" gradientUnits="userSpaceOnUse">
<stop stop-color="#8CF9B0"/>
<stop offset="1" stop-color="#FFDE02"/>
</linearGradient>
<linearGradient id="paint19_linear_2473_9389" x1="530.6" y1="408.256" x2="164.781" y2="645.821" gradientUnits="userSpaceOnUse">
<stop stop-color="#8CF9B0"/>
<stop offset="1" stop-color="#FFDE02"/>
</linearGradient>
<linearGradient id="paint20_linear_2473_9389" x1="525.236" y1="391.134" x2="176.095" y2="644.801" gradientUnits="userSpaceOnUse">
<stop stop-color="#8CF9B0"/>
<stop offset="1" stop-color="#FFDE02"/>
</linearGradient>
<linearGradient id="paint21_linear_2473_9389" x1="519.551" y1="374.536" x2="187.758" y2="643.216" gradientUnits="userSpaceOnUse">
<stop stop-color="#8CF9B0"/>
<stop offset="1" stop-color="#FFDE02"/>
</linearGradient>
<linearGradient id="paint22_linear_2473_9389" x1="513.573" y1="358.474" x2="199.734" y2="641.056" gradientUnits="userSpaceOnUse">
<stop stop-color="#8CF9B0"/>
<stop offset="1" stop-color="#FFDE02"/>
</linearGradient>
<linearGradient id="paint23_linear_2473_9389" x1="507.34" y1="342.959" x2="211.991" y2="638.308" gradientUnits="userSpaceOnUse">
<stop stop-color="#8CF9B0"/>
<stop offset="1" stop-color="#FFDE02"/>
</linearGradient>
<linearGradient id="paint24_linear_2473_9389" x1="500.876" y1="327.998" x2="224.484" y2="634.962" gradientUnits="userSpaceOnUse">
<stop stop-color="#8CF9B0"/>
<stop offset="1" stop-color="#FFDE02"/>
</linearGradient>
<linearGradient id="paint25_linear_2473_9389" x1="494.223" y1="313.6" x2="237.187" y2="631.014" gradientUnits="userSpaceOnUse">
<stop stop-color="#8CF9B0"/>
<stop offset="1" stop-color="#FFDE02"/>
</linearGradient>
<linearGradient id="paint26_linear_2473_9389" x1="487.414" y1="299.768" x2="250.061" y2="626.457" gradientUnits="userSpaceOnUse">
<stop stop-color="#8CF9B0"/>
<stop offset="1" stop-color="#FFDE02"/>
</linearGradient>
<linearGradient id="paint27_linear_2473_9389" x1="480.48" y1="286.503" x2="263.069" y2="621.287" gradientUnits="userSpaceOnUse">
<stop stop-color="#8CF9B0"/>
<stop offset="1" stop-color="#FFDE02"/>
</linearGradient>
<linearGradient id="paint28_linear_2473_9389" x1="473.451" y1="273.809" x2="276.172" y2="615.507" gradientUnits="userSpaceOnUse">
<stop stop-color="#8CF9B0"/>
<stop offset="1" stop-color="#FFDE02"/>
</linearGradient>
<linearGradient id="paint29_linear_2473_9389" x1="466.367" y1="261.683" x2="289.341" y2="609.116" gradientUnits="userSpaceOnUse">
<stop stop-color="#8CF9B0"/>
<stop offset="1" stop-color="#FFDE02"/>
</linearGradient>
<linearGradient id="paint30_linear_2473_9389" x1="459.255" y1="250.121" x2="302.536" y2="602.117" gradientUnits="userSpaceOnUse">
<stop stop-color="#8CF9B0"/>
<stop offset="1" stop-color="#FFDE02"/>
</linearGradient>
<linearGradient id="paint31_linear_2473_9389" x1="452.148" y1="239.119" x2="315.724" y2="594.517" gradientUnits="userSpaceOnUse">
<stop stop-color="#8CF9B0"/>
<stop offset="1" stop-color="#FFDE02"/>
</linearGradient>
<linearGradient id="paint32_linear_2473_9389" x1="445.082" y1="228.671" x2="328.874" y2="586.322" gradientUnits="userSpaceOnUse">
<stop stop-color="#8CF9B0"/>
<stop offset="1" stop-color="#FFDE02"/>
</linearGradient>
<linearGradient id="paint33_linear_2473_9389" x1="438.079" y1="218.767" x2="341.946" y2="577.542" gradientUnits="userSpaceOnUse">
<stop stop-color="#8CF9B0"/>
<stop offset="1" stop-color="#FFDE02"/>
</linearGradient>
<linearGradient id="paint34_linear_2473_9389" x1="431.181" y1="209.397" x2="354.918" y2="568.187" gradientUnits="userSpaceOnUse">
<stop stop-color="#8CF9B0"/>
<stop offset="1" stop-color="#FFDE02"/>
</linearGradient>
<linearGradient id="paint35_linear_2473_9389" x1="424.406" y1="200.55" x2="367.748" y2="558.271" gradientUnits="userSpaceOnUse">
<stop stop-color="#8CF9B0"/>
<stop offset="1" stop-color="#FFDE02"/>
</linearGradient>
<linearGradient id="paint36_linear_2473_9389" x1="417.788" y1="192.212" x2="380.413" y2="547.807" gradientUnits="userSpaceOnUse">
<stop stop-color="#8CF9B0"/>
<stop offset="1" stop-color="#FFDE02"/>
</linearGradient>
<linearGradient id="paint37_linear_2473_9389" x1="411.352" y1="184.367" x2="392.881" y2="536.812" gradientUnits="userSpaceOnUse">
<stop stop-color="#8CF9B0"/>
<stop offset="1" stop-color="#FFDE02"/>
</linearGradient>
<linearGradient id="paint38_linear_2473_9389" x1="405.127" y1="177.001" x2="405.127" y2="525.304" gradientUnits="userSpaceOnUse">
<stop stop-color="#8CF9B0"/>
<stop offset="1" stop-color="#FFDE02"/>
</linearGradient>
<linearGradient id="paint39_linear_2473_9389" x1="399.132" y1="170.094" x2="417.119" y2="513.3" gradientUnits="userSpaceOnUse">
<stop stop-color="#8CF9B0"/>
<stop offset="1" stop-color="#FFDE02"/>
</linearGradient>
<linearGradient id="paint40_linear_2473_9389" x1="393.398" y1="163.629" x2="428.838" y2="500.824" gradientUnits="userSpaceOnUse">
<stop stop-color="#8CF9B0"/>
<stop offset="1" stop-color="#FFDE02"/>
</linearGradient>
<linearGradient id="paint41_linear_2473_9389" x1="387.94" y1="157.585" x2="440.256" y2="487.894" gradientUnits="userSpaceOnUse">
<stop stop-color="#8CF9B0"/>
<stop offset="1" stop-color="#FFDE02"/>
</linearGradient>
<linearGradient id="paint42_linear_2473_9389" x1="382.782" y1="151.94" x2="451.351" y2="474.534" gradientUnits="userSpaceOnUse">
<stop stop-color="#8CF9B0"/>
<stop offset="1" stop-color="#FFDE02"/>
</linearGradient>
<linearGradient id="paint43_linear_2473_9389" x1="377.941" y1="146.674" x2="462.102" y2="460.769" gradientUnits="userSpaceOnUse">
<stop stop-color="#8CF9B0"/>
<stop offset="1" stop-color="#FFDE02"/>
</linearGradient>
<linearGradient id="paint44_linear_2473_9389" x1="373.438" y1="141.761" x2="472.494" y2="446.622" gradientUnits="userSpaceOnUse">
<stop stop-color="#8CF9B0"/>
<stop offset="1" stop-color="#FFDE02"/>
</linearGradient>
<linearGradient id="paint45_linear_2473_9389" x1="369.289" y1="137.18" x2="482.506" y2="432.121" gradientUnits="userSpaceOnUse">
<stop stop-color="#8CF9B0"/>
<stop offset="1" stop-color="#FFDE02"/>
</linearGradient>
<linearGradient id="paint46_linear_2473_9389" x1="365.507" y1="132.904" x2="492.124" y2="417.289" gradientUnits="userSpaceOnUse">
<stop stop-color="#8CF9B0"/>
<stop offset="1" stop-color="#FFDE02"/>
</linearGradient>
<linearGradient id="paint47_linear_2473_9389" x1="362.103" y1="128.908" x2="501.33" y2="402.156" gradientUnits="userSpaceOnUse">
<stop stop-color="#8CF9B0"/>
<stop offset="1" stop-color="#FFDE02"/>
</linearGradient>
<linearGradient id="paint48_linear_2473_9389" x1="359.095" y1="125.169" x2="510.119" y2="386.75" gradientUnits="userSpaceOnUse">
<stop stop-color="#8CF9B0"/>
<stop offset="1" stop-color="#FFDE02"/>
</linearGradient>
<linearGradient id="paint49_linear_2473_9389" x1="356.486" y1="121.658" x2="518.474" y2="371.097" gradientUnits="userSpaceOnUse">
<stop stop-color="#8CF9B0"/>
<stop offset="1" stop-color="#FFDE02"/>
</linearGradient>
<linearGradient id="paint50_linear_2473_9389" x1="354.288" y1="118.349" x2="526.389" y2="355.227" gradientUnits="userSpaceOnUse">
<stop stop-color="#8CF9B0"/>
<stop offset="1" stop-color="#FFDE02"/>
</linearGradient>
<linearGradient id="paint51_linear_2473_9389" x1="352.502" y1="115.217" x2="533.854" y2="339.168" gradientUnits="userSpaceOnUse">
<stop stop-color="#8CF9B0"/>
<stop offset="1" stop-color="#FFDE02"/>
</linearGradient>
<linearGradient id="paint52_linear_2473_9389" x1="351.144" y1="112.233" x2="540.873" y2="322.948" gradientUnits="userSpaceOnUse">
<stop stop-color="#8CF9B0"/>
<stop offset="1" stop-color="#FFDE02"/>
</linearGradient>
<linearGradient id="paint53_linear_2473_9389" x1="350.204" y1="109.371" x2="547.43" y2="306.597" gradientUnits="userSpaceOnUse">
<stop stop-color="#8CF9B0"/>
<stop offset="1" stop-color="#FFDE02"/>
</linearGradient>
<linearGradient id="paint54_linear_2473_9389" x1="349.692" y1="106.605" x2="553.533" y2="290.144" gradientUnits="userSpaceOnUse">
<stop stop-color="#8CF9B0"/>
<stop offset="1" stop-color="#FFDE02"/>
</linearGradient>
<linearGradient id="paint55_linear_2473_9389" x1="349.606" y1="103.907" x2="559.178" y2="273.615" gradientUnits="userSpaceOnUse">
<stop stop-color="#8CF9B0"/>
<stop offset="1" stop-color="#FFDE02"/>
</linearGradient>
<linearGradient id="paint56_linear_2473_9389" x1="349.939" y1="101.253" x2="564.363" y2="257.042" gradientUnits="userSpaceOnUse">
<stop stop-color="#8CF9B0"/>
<stop offset="1" stop-color="#FFDE02"/>
</linearGradient>
<linearGradient id="paint57_linear_2473_9389" x1="350.696" y1="98.6154" x2="569.101" y2="240.449" gradientUnits="userSpaceOnUse">
<stop stop-color="#8CF9B0"/>
<stop offset="1" stop-color="#FFDE02"/>
</linearGradient>
<linearGradient id="paint58_linear_2473_9389" x1="351.869" y1="95.9698" x2="573.391" y2="223.866" gradientUnits="userSpaceOnUse">
<stop stop-color="#8CF9B0"/>
<stop offset="1" stop-color="#FFDE02"/>
</linearGradient>
<linearGradient id="paint59_linear_2473_9389" x1="353.45" y1="93.2913" x2="577.241" y2="207.319" gradientUnits="userSpaceOnUse">
<stop stop-color="#8CF9B0"/>
<stop offset="1" stop-color="#FFDE02"/>
</linearGradient>
<linearGradient id="paint60_linear_2473_9389" x1="355.434" y1="90.5557" x2="580.66" y2="190.833" gradientUnits="userSpaceOnUse">
<stop stop-color="#8CF9B0"/>
<stop offset="1" stop-color="#FFDE02"/>
</linearGradient>
<linearGradient id="paint61_linear_2473_9389" x1="357.81" y1="87.7387" x2="583.658" y2="174.434" gradientUnits="userSpaceOnUse">
<stop stop-color="#8CF9B0"/>
<stop offset="1" stop-color="#FFDE02"/>
</linearGradient>
<linearGradient id="paint62_linear_2473_9389" x1="360.566" y1="84.818" x2="586.242" y2="158.145" gradientUnits="userSpaceOnUse">
<stop stop-color="#8CF9B0"/>
<stop offset="1" stop-color="#FFDE02"/>
</linearGradient>
<linearGradient id="paint63_linear_2473_9389" x1="363.693" y1="81.7735" x2="588.43" y2="141.992" gradientUnits="userSpaceOnUse">
<stop stop-color="#8CF9B0"/>
<stop offset="1" stop-color="#FFDE02"/>
</linearGradient>
<linearGradient id="paint64_linear_2473_9389" x1="367.179" y1="78.5819" x2="590.235" y2="125.994" gradientUnits="userSpaceOnUse">
<stop stop-color="#8CF9B0"/>
<stop offset="1" stop-color="#FFDE02"/>
</linearGradient>
<linearGradient id="paint65_linear_2473_9389" x1="371.011" y1="75.226" x2="591.674" y2="110.176" gradientUnits="userSpaceOnUse">
<stop stop-color="#8CF9B0"/>
<stop offset="1" stop-color="#FFDE02"/>
</linearGradient>
<linearGradient id="paint66_linear_2473_9389" x1="375.163" y1="71.6849" x2="592.752" y2="94.5544" gradientUnits="userSpaceOnUse">
<stop stop-color="#8CF9B0"/>
<stop offset="1" stop-color="#FFDE02"/>
</linearGradient>
<linearGradient id="paint67_linear_2473_9389" x1="379.631" y1="67.9424" x2="593.5" y2="79.1508" gradientUnits="userSpaceOnUse">
<stop stop-color="#8CF9B0"/>
<stop offset="1" stop-color="#FFDE02"/>
</linearGradient>
<linearGradient id="paint68_linear_2473_9389" x1="384.396" y1="63.9817" x2="593.933" y2="63.9817" gradientUnits="userSpaceOnUse">
<stop stop-color="#8CF9B0"/>
<stop offset="1" stop-color="#FFDE02"/>
</linearGradient>
</defs>
</svg>
