<svg width="48" height="48" viewBox="0 0 48 48" fill="none" xmlns="http://www.w3.org/2000/svg">
<rect width="48" height="48" rx="24" fill="#FFDE02"/>
<path d="M22.968 16.2C24.984 16.2 26.568 16.584 27.696 17.352C28.824 18.12 29.4 19.224 29.4 20.64C29.4 21.72 29.088 22.584 28.488 23.208C27.864 23.832 27.024 24.24 25.944 24.384C27.216 24.528 28.2 24.936 28.896 25.56C29.592 26.184 29.952 27.072 29.952 28.224C29.952 29.712 29.352 30.864 28.2 31.728C27.048 32.592 25.416 33 23.328 33H16.32V16.2H22.968ZM20.736 22.896H23.04C23.64 22.896 24.12 22.752 24.456 22.44C24.792 22.152 24.984 21.744 24.984 21.216C24.984 20.712 24.792 20.304 24.456 19.992C24.12 19.704 23.64 19.536 23.04 19.536H20.736V22.896ZM20.736 29.64H23.376C24 29.64 24.504 29.496 24.864 29.184C25.224 28.896 25.416 28.464 25.416 27.912C25.416 27.384 25.224 26.952 24.864 26.64C24.504 26.352 24 26.184 23.376 26.184H20.736V29.64ZM32.1917 29.112C32.6477 28.68 33.2237 28.44 33.9197 28.44C34.5917 28.44 35.1677 28.68 35.6237 29.112C36.0797 29.568 36.3197 30.12 36.3197 30.792C36.3197 31.464 36.0797 32.04 35.6237 32.472C35.1677 32.928 34.5917 33.144 33.9197 33.144C33.2237 33.144 32.6477 32.928 32.1917 32.472C31.7357 32.04 31.5197 31.464 31.5197 30.792C31.5197 30.12 31.7357 29.568 32.1917 29.112Z" fill="black"/>
</svg>
