<svg width="18" height="18" viewBox="0 0 18 18" fill="none" xmlns="http://www.w3.org/2000/svg">
<path d="M12.2549 0.99939H5.75238V1.99939H12.2549V0.99939ZM5.75238 0.99939C4.35974 0.99939 3.1611 1.49102 2.31161 2.37791C1.46391 3.26292 0.999878 4.50351 0.999878 5.93939H1.99988C1.99988 4.72027 2.39085 3.74085 3.03378 3.06962C3.67491 2.40026 4.60252 1.99939 5.75238 1.99939V0.99939ZM0.999878 5.93939V12.0676H1.99988V5.93939H0.999878ZM0.999878 12.0676C0.999878 13.5001 1.46414 14.7387 2.31186 15.6224C3.16131 16.508 4.35982 16.9994 5.75238 16.9994V15.9994C4.60243 15.9994 3.67469 15.5986 3.03353 14.9302C2.39062 14.26 1.99988 13.2826 1.99988 12.0676H0.999878ZM5.75238 16.9994H12.2549V15.9994H5.75238V16.9994ZM12.2549 16.9994C13.6475 16.9994 14.8444 16.5079 15.6921 15.622C16.5379 14.738 16.9999 13.4995 16.9999 12.0676H15.9999C15.9999 13.2833 15.6106 14.2606 14.9695 14.9307C14.3303 15.5987 13.4047 15.9994 12.2549 15.9994V16.9994ZM16.9999 12.0676V5.93939H15.9999V12.0676H16.9999ZM16.9999 5.93939C16.9999 4.50411 16.5381 3.2636 15.6923 2.37836C14.8446 1.4911 13.6476 0.99939 12.2549 0.99939V1.99939C13.4046 1.99939 14.3301 2.40018 14.9693 3.06917C15.6104 3.74018 15.9999 4.71967 15.9999 5.93939H16.9999Z" fill="#D9D8D5"/>
<path d="M8.98274 6.99988C8.44559 6.99988 7.99988 6.55302 7.99988 6.00559C7.99988 5.44559 8.44559 4.99988 9.00559 4.99988C9.55416 4.99988 9.99988 5.44559 9.99988 6.00559C9.99988 6.55302 9.55416 6.99988 8.98274 6.99988Z" fill="#D9D8D5"/>
<path d="M9.65222 11.8352C9.65222 12.1952 9.35972 12.4877 8.99222 12.4877C8.63222 12.4877 8.33972 12.1952 8.33972 11.8352V8.52023C8.33972 8.15948 8.63222 7.86023 8.99222 7.86023C9.35972 7.86023 9.65222 8.15948 9.65222 8.52023V11.8352Z" fill="#D9D8D5"/>
</svg>
