<svg width="18" height="18" viewBox="0 0 18 18" fill="none" xmlns="http://www.w3.org/2000/svg">
<path d="M3 3V2.5H2.5V3H3ZM15 3H15.5V2.5H15V3ZM4.89645 8.64645C4.70118 8.84171 4.70118 9.15829 4.89645 9.35355C5.09171 9.54881 5.40829 9.54881 5.60355 9.35355L4.89645 8.64645ZM7.5 6.75L7.85355 6.39645C7.65829 6.20118 7.34171 6.20118 7.14645 6.39645L7.5 6.75ZM9.75 9L9.39645 9.35355C9.59171 9.54881 9.90829 9.54881 10.1036 9.35355L9.75 9ZM13.1036 6.35355C13.2988 6.15829 13.2988 5.84171 13.1036 5.64645C12.9083 5.45118 12.5917 5.45118 12.3964 5.64645L13.1036 6.35355ZM5.64645 15.3964C5.45118 15.5917 5.45118 15.9083 5.64645 16.1036C5.84171 16.2988 6.15829 16.2988 6.35355 16.1036L5.64645 15.3964ZM9 12.75L9.35355 12.3964C9.15829 12.2012 8.84171 12.2012 8.64645 12.3964L9 12.75ZM11.6464 16.1036C11.8417 16.2988 12.1583 16.2988 12.3536 16.1036C12.5488 15.9083 12.5488 15.5917 12.3536 15.3964L11.6464 16.1036ZM2.25 2.5C1.97386 2.5 1.75 2.72386 1.75 3C1.75 3.27614 1.97386 3.5 2.25 3.5V2.5ZM15.75 3.5C16.0261 3.5 16.25 3.27614 16.25 3C16.25 2.72386 16.0261 2.5 15.75 2.5V3.5ZM3 3.5H15V2.5H3V3.5ZM14.5 3V12H15.5V3H14.5ZM14.25 12.25H3.75V13.25H14.25V12.25ZM3.5 12V3H2.5V12H3.5ZM3.75 12.25C3.61193 12.25 3.5 12.1381 3.5 12H2.5C2.5 12.6904 3.05964 13.25 3.75 13.25V12.25ZM14.5 12C14.5 12.1381 14.3881 12.25 14.25 12.25V13.25C14.9404 13.25 15.5 12.6904 15.5 12H14.5ZM5.60355 9.35355L7.85355 7.10355L7.14645 6.39645L4.89645 8.64645L5.60355 9.35355ZM7.14645 7.10355L9.39645 9.35355L10.1036 8.64645L7.85355 6.39645L7.14645 7.10355ZM10.1036 9.35355L13.1036 6.35355L12.3964 5.64645L9.39645 8.64645L10.1036 9.35355ZM6.35355 16.1036L9.35355 13.1036L8.64645 12.3964L5.64645 15.3964L6.35355 16.1036ZM8.64645 13.1036L11.6464 16.1036L12.3536 15.3964L9.35355 12.3964L8.64645 13.1036ZM2.25 3.5H15.75V2.5H2.25V3.5Z" fill="white"/>
</svg>
